<svg width="360" height="76" viewBox="0 0 360 76" fill="none" xmlns="http://www.w3.org/2000/svg">
<g clip-path="url(#clip0)">
<path d="M36.7338 5.69226H53.9765L39.6321 75.9999H22.3894L36.7338 5.69226Z" fill="white"/>
<path d="M62.0337 5.69226H79.2764L68.1001 60.7797H50.8533L62.0337 5.69226Z" fill="white"/>
<path d="M11.1804 5.69226H28.4231L17.2468 60.7797H0L11.1804 5.69226Z" fill="white"/>
<path d="M109.272 60.438C105.768 60.438 102.751 60.2677 100.22 59.927C97.738 59.5863 95.5237 59.0753 93.577 58.394L94.745 51.021H112.119C114.066 51.021 115.161 50.3397 115.404 48.977L115.623 47.809C115.672 47.5657 115.696 47.3953 115.696 47.298C115.696 47.2007 115.696 47.1277 115.696 47.079C115.696 45.9597 114.893 45.4 113.287 45.4H107.885C104.673 45.4 101.948 44.743 99.709 43.429C97.519 42.115 96.424 39.998 96.424 37.078C96.424 36.5427 96.424 36.0073 96.424 35.472C96.4727 34.888 96.5457 34.2797 96.643 33.647L97.081 30.946C97.4703 28.902 98.2247 27.077 99.344 25.471C100.512 23.865 102.264 22.5997 104.6 21.675C106.936 20.7503 110.051 20.288 113.944 20.288C115.599 20.288 117.351 20.3853 119.2 20.58C121.049 20.726 122.826 20.9693 124.529 21.31C126.281 21.602 127.79 21.967 129.055 22.405L127.887 29.778H111.535C110.513 29.778 109.759 29.9483 109.272 30.289C108.785 30.581 108.445 31.1163 108.25 31.895L108.104 32.552C108.055 32.7953 108.007 33.0387 107.958 33.282C107.958 33.4767 107.958 33.647 107.958 33.793C107.958 34.3283 108.128 34.742 108.469 35.034C108.81 35.2773 109.491 35.399 110.513 35.399H116.718C119.93 35.399 122.509 36.1047 124.456 37.516C126.403 38.9273 127.376 40.8497 127.376 43.283C127.376 43.8183 127.352 44.378 127.303 44.962C127.303 45.546 127.254 46.1543 127.157 46.787L126.646 50.218C126.062 53.9653 124.237 56.6177 121.171 58.175C118.154 59.6837 114.187 60.438 109.272 60.438ZM129.615 60L135.747 20.726H146.259L147.792 24.595C149.447 23.3783 151.296 22.3563 153.34 21.529C155.384 20.7017 157.89 20.288 160.859 20.288C163.049 20.288 164.898 20.726 166.407 21.602C167.916 22.478 169.181 23.938 170.203 25.982C172.344 23.938 174.656 22.478 177.138 21.602C179.62 20.726 181.883 20.288 183.927 20.288C187.772 20.288 190.473 21.164 192.03 22.916C193.587 24.6193 194.366 26.858 194.366 29.632C194.366 30.7513 194.317 31.8463 194.22 32.917C194.123 33.9877 193.977 35.034 193.782 36.056L189.986 60H177.357L181.153 36.348C181.202 36.0073 181.226 35.5937 181.226 35.107C181.226 32.771 179.888 31.603 177.211 31.603C175.946 31.603 174.705 31.8707 173.488 32.406C172.32 32.9413 171.176 33.6713 170.057 34.596C170.008 35.2287 169.935 35.8857 169.838 36.567L166.115 60H153.486L157.209 36.494C157.258 36.0073 157.282 35.5207 157.282 35.034C157.282 33.8173 156.941 32.9413 156.26 32.406C155.579 31.8707 154.605 31.603 153.34 31.603C151.734 31.603 150.371 31.9193 149.252 32.552C148.181 33.136 147.184 33.793 146.259 34.523L142.171 60H129.615ZM207.348 60.438C205.498 60.438 203.771 59.9757 202.165 59.051C200.607 58.0777 199.342 56.5933 198.369 54.598C197.444 52.6027 196.982 49.999 196.982 46.787C196.982 45.3757 197.079 43.8913 197.274 42.334C197.517 40.728 197.712 39.4383 197.858 38.465C198.831 32.3817 200.972 27.8313 204.282 24.814C207.64 21.7967 212.482 20.288 218.809 20.288C222.361 20.288 225.671 20.7503 228.737 21.675C231.803 22.551 234.212 23.6703 235.964 25.033L230.416 60H219.174L218.444 56.131C217.762 56.7637 216.813 57.4207 215.597 58.102C214.429 58.7347 213.115 59.2943 211.655 59.781C210.243 60.219 208.808 60.438 207.348 60.438ZM213.699 50.364C215.013 50.364 216.156 50.0963 217.13 49.561C218.152 49.0257 219.003 48.4903 219.685 47.955L222.313 31.165C222.069 31.0677 221.558 30.9217 220.78 30.727C220.001 30.4837 219.149 30.362 218.225 30.362C215.791 30.362 213.966 31.165 212.75 32.771C211.533 34.3283 210.681 36.494 210.195 39.268C209.805 41.5067 209.611 43.2587 209.611 44.524C209.611 46.0813 209.903 47.444 210.487 48.612C211.119 49.78 212.19 50.364 213.699 50.364ZM235.981 60L242.186 20.726H253.501L254.012 25.909C255.326 24.3517 256.811 23.0377 258.465 21.967C260.169 20.8477 262.115 20.288 264.305 20.288C265.035 20.288 265.668 20.3123 266.203 20.361C266.787 20.4097 267.371 20.507 267.955 20.653L266.057 33.282C264.549 33.2333 263.089 33.209 261.677 33.209C259.585 33.209 257.76 33.501 256.202 34.085C254.645 34.669 253.38 35.326 252.406 36.056L248.61 60H235.981ZM283.687 60C279.55 60 276.435 59.27 274.343 57.81C272.25 56.35 271.204 54.0383 271.204 50.875C271.204 50.0477 271.252 49.05 271.35 47.882C271.447 46.714 271.617 45.4 271.861 43.94L274.343 30.727H268.284L269.598 22.697L276.387 20.726L279.745 9.703H289.746L287.994 20.726H296.535L295.002 30.727H286.461L284.344 43.94C284.246 44.3293 284.149 44.8647 284.052 45.546C283.954 46.2273 283.906 46.8113 283.906 47.298C283.906 48.32 284.149 49.05 284.636 49.488C285.171 49.8773 285.998 50.1207 287.118 50.218L291.498 50.656L290.038 60H283.687ZM320.412 15.397C319.925 15.397 319.536 15.251 319.244 14.959C319.001 14.667 318.952 14.2777 319.098 13.791L320.266 6.126C320.461 5.00666 321.093 4.447 322.164 4.447H331.946C332.481 4.447 332.846 4.61733 333.041 4.958C333.236 5.29866 333.284 5.688 333.187 6.126L332.019 13.791C331.824 14.8617 331.24 15.397 330.267 15.397H320.412ZM311.944 60L318.076 20.726H330.705L324.5 60H311.944ZM347.245 60C343.108 60 339.994 59.27 337.901 57.81C335.808 56.35 334.762 54.0383 334.762 50.875C334.762 50.0477 334.811 49.05 334.908 47.882C335.005 46.714 335.176 45.4 335.419 43.94L337.901 30.727H331.842L333.156 22.697L339.945 20.726L343.303 9.703H353.304L351.552 20.726H360.093L358.56 30.727H350.019L347.902 43.94C347.805 44.3293 347.707 44.8647 347.61 45.546C347.513 46.2273 347.464 46.8113 347.464 47.298C347.464 48.32 347.707 49.05 348.194 49.488C348.729 49.8773 349.557 50.1207 350.676 50.218L355.056 50.656L353.596 60H347.245Z" fill="white"/>
<path d="M297.191 60.146C296.266 60.146 295.804 59.708 295.804 58.832V58.54L297.045 50.51C297.191 49.3907 297.848 48.831 299.016 48.831H306.316C307.289 48.831 307.776 49.2203 307.776 49.999V50.51L306.462 58.54C306.365 59.1727 306.121 59.6107 305.732 59.854C305.391 60.0487 304.978 60.146 304.491 60.146H297.191Z" fill="#4CD62B"/>
</g>
<defs>
<clipPath id="clip0">
<rect width="360" height="76" fill="white"/>
</clipPath>
</defs>
</svg>
